<?xml version="1.0" encoding="UTF-8"?>
<!--
  Lucide icon sprite (ISC licence, https://lucide.dev).
  Usage: <svg class="icon" aria-hidden="true"><use href="/icons.svg#NAME"/></svg>
  Stroke/fill come from the .icon class on the consuming <svg>
  (css/components/icons.css) and inherit into the <use> shadow tree, so paths
  carry no presentation attributes. New icon: copy the Lucide paths into a new
  <symbol id="lucide-name" viewBox="0 0 24 24"> and list it in DESIGN.md.
  The file is only ever referenced via <use>, never rendered on its own.
-->
<svg xmlns="http://www.w3.org/2000/svg" aria-hidden="true">
  <symbol id="chevron-right" viewBox="0 0 24 24"><path d="m9 18 6-6-6-6"/></symbol>
  <symbol id="chevron-left"  viewBox="0 0 24 24"><path d="m15 18-6-6 6-6"/></symbol>
  <symbol id="chevron-down"  viewBox="0 0 24 24"><path d="m6 9 6 6 6-6"/></symbol>
  <symbol id="chevron-up"    viewBox="0 0 24 24"><path d="m18 15-6-6-6 6"/></symbol>
  <symbol id="arrow-right" viewBox="0 0 24 24"><path d="M5 12h14"/><path d="m12 5 7 7-7 7"/></symbol>
  <symbol id="arrow-left"  viewBox="0 0 24 24"><path d="m12 19-7-7 7-7"/><path d="M19 12H5"/></symbol>
  <symbol id="check"  viewBox="0 0 24 24"><path d="M20 6 9 17l-5-5"/></symbol>
  <symbol id="x"      viewBox="0 0 24 24"><path d="M18 6 6 18"/><path d="m6 6 12 12"/></symbol>
  <symbol id="plus"   viewBox="0 0 24 24"><path d="M5 12h14"/><path d="M12 5v14"/></symbol>
  <symbol id="minus"  viewBox="0 0 24 24"><path d="M5 12h14"/></symbol>
  <symbol id="pencil"    viewBox="0 0 24 24"><path d="M21.174 6.812a1 1 0 0 0-3.986-3.987L3.842 16.174a2 2 0 0 0-.5.83l-1.321 4.352a.5.5 0 0 0 .623.622l4.353-1.32a2 2 0 0 0 .83-.497z"/><path d="m15 5 4 4"/></symbol>
  <symbol id="trash"     viewBox="0 0 24 24"><path d="M3 6h18"/><path d="M19 6v14a2 2 0 0 1-2 2H7a2 2 0 0 1-2-2V6"/><path d="M8 6V4a2 2 0 0 1 2-2h4a2 2 0 0 1 2 2v2"/><line x1="10" x2="10" y1="11" y2="17"/><line x1="14" x2="14" y1="11" y2="17"/></symbol>
  <symbol id="search"    viewBox="0 0 24 24"><circle cx="11" cy="11" r="8"/><path d="m21 21-4.3-4.3"/></symbol>
  <symbol id="copy"        viewBox="0 0 24 24"><rect width="14" height="14" x="8" y="8" rx="2" ry="2"/><path d="M4 16c-1.1 0-2-.9-2-2V4c0-1.1.9-2 2-2h10c1.1 0 2 .9 2 2"/></symbol>
  <symbol id="download"  viewBox="0 0 24 24"><path d="M21 15v4a2 2 0 0 1-2 2H5a2 2 0 0 1-2-2v-4"/><polyline points="7 10 12 15 17 10"/><line x1="12" x2="12" y1="15" y2="3"/></symbol>
  <symbol id="external-link" viewBox="0 0 24 24"><path d="M15 3h6v6"/><path d="M10 14 21 3"/><path d="M18 13v6a2 2 0 0 1-2 2H5a2 2 0 0 1-2-2V8a2 2 0 0 1 2-2h6"/></symbol>
  <symbol id="rotate-cw" viewBox="0 0 24 24"><path d="M21 12a9 9 0 1 1-9-9c2.52 0 4.93 1 6.74 2.74L21 8"/><path d="M21 3v5h-5"/></symbol>
  <symbol id="more-horizontal" viewBox="0 0 24 24"><circle cx="12" cy="12" r="1"/><circle cx="19" cy="12" r="1"/><circle cx="5" cy="12" r="1"/></symbol>
  <symbol id="maximize-2" viewBox="0 0 24 24"><polyline points="15 3 21 3 21 9"/><polyline points="9 21 3 21 3 15"/><line x1="21" x2="14" y1="3" y2="10"/><line x1="3" x2="10" y1="21" y2="14"/></symbol>
  <symbol id="minimize-2" viewBox="0 0 24 24"><polyline points="4 14 10 14 10 20"/><polyline points="20 10 14 10 14 4"/><line x1="14" x2="21" y1="10" y2="3"/><line x1="3" x2="10" y1="21" y2="14"/></symbol>
  <symbol id="archive"     viewBox="0 0 24 24"><rect width="20" height="5" x="2" y="3" rx="1"/><path d="M4 8v11a2 2 0 0 0 2 2h12a2 2 0 0 0 2-2V8"/><path d="M10 12h4"/></symbol>
  <symbol id="pin"         viewBox="0 0 24 24"><path d="M12 17v5"/><path d="M9 10.76a2 2 0 0 1-1.11 1.79l-1.78.9A2 2 0 0 0 5 15.24V16a1 1 0 0 0 1 1h12a1 1 0 0 0 1-1v-.76a2 2 0 0 0-1.11-1.79l-1.78-.9A2 2 0 0 1 15 10.76V7a1 1 0 0 1 1-1 2 2 0 0 0 0-4H8a2 2 0 0 0 0 4 1 1 0 0 1 1 1z"/></symbol>
  <symbol id="alert-triangle" viewBox="0 0 24 24"><path d="m21.73 18-8-14a2 2 0 0 0-3.48 0l-8 14A2 2 0 0 0 4 21h16a2 2 0 0 0 1.73-3"/><line x1="12" x2="12" y1="9" y2="13"/><line x1="12" x2="12.01" y1="17" y2="17"/></symbol>
  <symbol id="circle-help" viewBox="0 0 24 24"><circle cx="12" cy="12" r="10"/><path d="M9.09 9a3 3 0 0 1 5.83 1c0 2-3 3-3 3"/><path d="M12 17h.01"/></symbol>
  <symbol id="loader"    viewBox="0 0 24 24"><path d="M12 2v4"/><path d="m16.2 7.8 2.9-2.9"/><path d="M18 12h4"/><path d="m16.2 16.2 2.9 2.9"/><path d="M12 18v4"/><path d="m4.9 19.1 2.9-2.9"/><path d="M2 12h4"/><path d="m4.9 4.9 2.9 2.9"/></symbol>
  <symbol id="activity"    viewBox="0 0 24 24"><path d="M22 12h-4l-3 9L9 3l-3 9H2"/></symbol>
  <symbol id="calendar"  viewBox="0 0 24 24"><path d="M8 2v4"/><path d="M16 2v4"/><rect width="18" height="18" x="3" y="4" rx="2"/><path d="M3 10h18"/></symbol>
  <symbol id="list"      viewBox="0 0 24 24"><line x1="8" x2="21" y1="6" y2="6"/><line x1="8" x2="21" y1="12" y2="12"/><line x1="8" x2="21" y1="18" y2="18"/><line x1="3" x2="3.01" y1="6" y2="6"/><line x1="3" x2="3.01" y1="12" y2="12"/><line x1="3" x2="3.01" y1="18" y2="18"/></symbol>
  <symbol id="user"        viewBox="0 0 24 24"><path d="M19 21v-2a4 4 0 0 0-4-4H9a4 4 0 0 0-4 4v2"/><circle cx="12" cy="7" r="4"/></symbol>
  <symbol id="file-text" viewBox="0 0 24 24"><path d="M15 2H6a2 2 0 0 0-2 2v16a2 2 0 0 0 2 2h12a2 2 0 0 0 2-2V7Z"/><path d="M14 2v4a2 2 0 0 0 2 2h4"/><path d="M10 9H8"/><path d="M16 13H8"/><path d="M16 17H8"/></symbol>
  <symbol id="log-out" viewBox="0 0 24 24"><path d="M9 21H5a2 2 0 0 1-2-2V5a2 2 0 0 1 2-2h4"/><polyline points="16 17 21 12 16 7"/><line x1="21" x2="9" y1="12" y2="12"/></symbol>
</svg>
